<?xml version="1.0" encoding="UTF-8"?><svg id="Layer_1" xmlns="http://www.w3.org/2000/svg" viewBox="0 0 54.1 54.1"><defs><style>.cls-1{fill:#245a67;}.cls-2{fill:#75d4e6;}.cls-3{fill:#fff;stroke:#1889a9;stroke-linecap:round;stroke-linejoin:round;stroke-width:2px;}</style></defs><circle class="cls-3" cx="27.05" cy="27.05" r="26.05"/><g><path class="cls-1" d="M29.93,32c0,2.08,0,4.15-.02,6.23,0,1-.59,1.8-1.51,2.12-.93,.32-1.88,.05-2.5-.73-.34-.43-.46-.94-.52-1.46,0-.17,.02-.34,.02-.51,.01-7.02,.03-14.05,.04-21.07,0-.2,0-.4-.01-.6,.11-1.2,.72-1.97,1.91-2.26,.02,0,.03-.05,.04-.08,.19,0,.37,0,.56,0,.02,.1,.1,.09,.17,.11,1.12,.3,1.78,1.13,1.78,2.28,0,2.01,0,4.02,.01,6.03,0,.14,0,.28,.01,.42,0,3.17,0,6.35,.01,9.52Z"/><path class="cls-1" d="M43.89,28.54c-.21,.52-.21,1.08-.34,1.61-.62,2.49-1.94,4.54-3.86,6.22-.64,.56-1.5,.53-2-.05-.51-.59-.46-1.44,.16-1.99,1.42-1.28,2.49-2.79,2.94-4.65,.9-3.68-.05-6.83-2.82-9.42-.34-.32-.64-.64-.65-1.13,0-.55,.19-1.02,.7-1.27,.52-.26,1.07-.2,1.53,.15,.98,.74,1.7,1.71,2.39,2.72,1.07,1.57,1.65,3.31,1.87,5.19,0,.04,.05,.07,.08,.1v2.52Z"/><path class="cls-2" d="M25.43,15.96c0,.2,.01,.4,.01,.6-.01,7.02-.03,14.05-.04,21.07,0,.17-.01,.34-.02,.51-.75-.34-1.41-.83-2.11-1.26-1.97-1.23-3.93-2.47-5.9-3.7,.08-.63,.03-1.27,.03-1.91,0-3.41-.01-6.83-.02-10.24,.62-.59,1.4-.94,2.11-1.4,1.85-1.2,3.73-2.35,5.6-3.52,.1-.06,.19-.17,.33-.15Z"/><path class="cls-1" d="M17.39,21.03c0,3.41,.02,6.83,.02,10.24,0,.63,.05,1.27-.03,1.91-1.18-.02-2.36,.08-3.53-.06-2-.23-3.6-2-3.62-4.02-.01-1.36-.01-2.73,0-4.09,.02-2.09,1.87-3.96,3.95-4,1.07-.02,2.14,.01,3.21,.02Z"/><path class="cls-1" d="M39.23,27.24c-.04,2.23-.89,4.09-2.55,5.57-.65,.58-1.43,.55-1.98-.06-.5-.55-.46-1.42,.13-1.96,1.02-.92,1.6-2.05,1.65-3.42,.05-1.35-.46-2.51-1.41-3.48-.09-.09-.18-.17-.27-.26-.57-.57-.62-1.42-.11-1.96,.5-.53,1.37-.56,1.97-.03,1.53,1.34,2.61,3.4,2.57,5.59Z"/><path class="cls-2" d="M29.93,32c0-3.17,0-6.35-.01-9.52,1.47,.43,2.54,1.34,3.12,2.75,1.19,2.9-.32,6-3.11,6.77Z"/></g></svg>
