<?xml version="1.0" encoding="UTF-8"?>
<svg width="18px" height="18px" viewBox="0 0 18 18" version="1.1" xmlns="http://www.w3.org/2000/svg" xmlns:xlink="http://www.w3.org/1999/xlink">
    <title>icn-web-menu-role</title>
    <g id="Page-1" stroke="none" stroke-width="1" fill="none" fill-rule="evenodd">
        <g id="20210608-lms-dashboard-404" transform="translate(-24.000000, -73.000000)" fill="#FFFFFF" fill-rule="nonzero">
            <g id="Group-2" transform="translate(0.000000, 65.000000)">
                <g id="icn-web-menu-role" transform="translate(24.000000, 8.000000)">
                    <path d="M6.3,8.775 C5.679,8.775 5.175,9.279 5.175,9.9 C5.175,10.521 5.679,11.025 6.3,11.025 C6.921,11.025 7.425,10.521 7.425,9.9 C7.425,9.279 6.921,8.775 6.3,8.775 Z M11.7,8.775 C11.079,8.775 10.575,9.279 10.575,9.9 C10.575,10.521 11.079,11.025 11.7,11.025 C12.321,11.025 12.825,10.521 12.825,9.9 C12.825,9.279 12.321,8.775 11.7,8.775 Z M9,0 C4.032,0 0,4.032 0,9 C0,13.968 4.032,18 9,18 C13.968,18 18,13.968 18,9 C18,4.032 13.968,0 9,0 Z M9,16.2 C5.031,16.2 1.8,12.969 1.8,9 C1.8,8.739 1.818,8.478 1.845,8.226 C3.969,7.281 5.652,5.544 6.534,3.393 C8.163,5.697 10.845,7.2 13.878,7.2 C14.58,7.2 15.255,7.119 15.903,6.966 C16.092,7.605 16.2,8.289 16.2,9 C16.2,12.969 12.969,16.2 9,16.2 Z"></path>
                </g>
            </g>
        </g>
    </g>
</svg>